<svg xmlns="http://www.w3.org/2000/svg" xmlns:xlink="http://www.w3.org/1999/xlink" width="375" viewBox="0 0 375 375" height="375" version="1.0"><defs><clipPath id="b"><path d="M 134 245 L 227 245 L 227 297.464844 L 134 297.464844 Z M 134 245"/></clipPath><clipPath id="c"><path d="M 117.078125 198 L 243 198 L 243 221 L 117.078125 221 Z M 117.078125 198"/></clipPath><clipPath id="d"><path d="M 117.078125 198 L 243 198 L 243 221 L 117.078125 221 Z M 117.078125 198"/></clipPath><clipPath id="e"><path d="M 167 166.214844 L 179 166.214844 L 179 215 L 167 215 Z M 167 166.214844"/></clipPath><clipPath id="f"><path d="M 132 134 L 226 134 L 226 216.859375 L 132 216.859375 Z M 132 134"/></clipPath><clipPath id="g"><path d="M 133 137 L 226 137 L 226 216.859375 L 133 216.859375 Z M 133 137"/></clipPath><clipPath id="j"><path d="M 0.441406 0.0390625 L 92.601562 0.0390625 L 92.601562 79.859375 L 0.441406 79.859375 Z M 0.441406 0.0390625"/></clipPath><clipPath id="i"><path d="M0 0H93V80H0z"/></clipPath><clipPath id="k"><path d="M 133 145 L 210 145 L 210 216.859375 L 133 216.859375 Z M 133 145"/></clipPath><clipPath id="l"><path d="M 131 133.609375 L 226.792969 133.609375 L 226.792969 216.859375 L 131 216.859375 Z M 131 133.609375"/></clipPath><clipPath id="m"><path d="M 152.824219 216.976562 L 206.824219 216.976562 L 206.824219 274.726562 L 152.824219 274.726562 Z M 152.824219 216.976562"/></clipPath><filter x="0%" y="0%" width="100%" xlink:type="simple" xlink:actuate="onLoad" height="100%" id="a" xlink:show="other"><feColorMatrix values="0 0 0 0 1 0 0 0 0 1 0 0 0 0 1 0 0 0 1 0" color-interpolation-filters="sRGB"/></filter><mask id="h"><g filter="url(#a)"><path fill-opacity=".298" d="M-37.5 -37.5H412.5V412.5H-37.5z"/></g></mask></defs><path fill="#FF8E3C" d="M 174.328125 66.328125 C 107.433594 66.328125 53.203125 120.558594 53.203125 187.453125 C 53.203125 254.347656 107.433594 308.578125 174.328125 308.578125 C 241.222656 308.578125 295.453125 254.347656 295.453125 187.453125 C 295.453125 120.558594 241.222656 66.328125 174.328125 66.328125"/><path fill="#FFF" d="M 210.574219 289.378906 C 206.425781 292.863281 198.972656 296.425781 180.378906 296.425781 C 164.28125 296.425781 154.480469 292.449219 150.179688 289.007812 C 146.449219 286.015625 133.960938 268.234375 135.457031 246.617188 C 143.941406 246.617188 214.820312 246.617188 225.296875 246.617188 C 225.296875 268.660156 216.316406 284.558594 210.574219 289.378906"/><g clip-path="url(#b)"><path fill="#0F0A0A" d="M 210.574219 289.378906 L 209.917969 288.59375 C 207.945312 290.246094 205.203125 291.925781 200.617188 293.222656 C 196.03125 294.515625 189.609375 295.402344 180.378906 295.402344 C 172.414062 295.402344 166.03125 294.417969 161.132812 293.023438 C 156.238281 291.628906 152.824219 289.816406 150.820312 288.207031 C 150.453125 287.917969 149.921875 287.394531 149.304688 286.679688 C 147.125 284.167969 143.863281 279.316406 141.175781 272.972656 C 138.484375 266.625 136.355469 258.78125 136.355469 250.214844 C 136.355469 249.050781 136.394531 247.875 136.476562 246.6875 L 135.457031 246.617188 L 135.457031 247.644531 C 143.941406 247.644531 214.820312 247.644531 225.296875 247.644531 L 225.296875 246.617188 L 224.273438 246.617188 C 224.277344 257.5 222.058594 266.855469 219.144531 274.070312 C 217.683594 277.679688 216.054688 280.75 214.441406 283.199219 C 212.835938 285.652344 211.246094 287.480469 209.917969 288.59375 L 210.574219 289.378906 L 211.234375 290.164062 C 212.777344 288.863281 214.460938 286.898438 216.152344 284.324219 C 218.6875 280.464844 221.222656 275.226562 223.132812 268.855469 C 225.042969 262.488281 226.320312 254.988281 226.320312 246.617188 C 226.320312 246.347656 226.214844 246.085938 226.023438 245.894531 C 225.832031 245.703125 225.566406 245.59375 225.296875 245.59375 C 214.820312 245.59375 143.941406 245.59375 135.457031 245.59375 C 134.917969 245.59375 134.472656 246.011719 134.4375 246.546875 C 134.347656 247.785156 134.308594 249.007812 134.308594 250.214844 C 134.308594 260.394531 137.191406 269.527344 140.511719 276.484375 C 142.171875 279.960938 143.945312 282.894531 145.539062 285.152344 C 146.332031 286.28125 147.085938 287.242188 147.757812 288.019531 C 148.433594 288.796875 149.023438 289.390625 149.542969 289.804688 C 151.835938 291.640625 155.472656 293.535156 160.574219 294.992188 C 165.675781 296.445312 172.246094 297.449219 180.378906 297.449219 C 189.742188 297.445312 196.339844 296.554688 201.167969 295.195312 C 205.996094 293.835938 209.058594 291.992188 211.234375 290.164062 L 210.574219 289.378906"/></g><path fill="#FFF" d="M 262.542969 240.296875 C 261.492188 247.582031 248.566406 272.488281 229.675781 266.039062 C 234.199219 257.089844 238.550781 244.253906 240.644531 228.511719 C 243.394531 226.160156 247.082031 224.917969 250.953125 225.398438 C 258.269531 226.3125 263.898438 230.925781 262.542969 240.296875 Z M 256.335938 216.90625 C 250.695312 216.199219 245.335938 218.074219 241.40625 221.585938 C 241.746094 217.523438 241.9375 213.296875 241.9375 208.917969 C 227.617188 208.917969 130.800781 208.917969 119.210938 208.917969 C 117.164062 243.71875 134.222656 272.335938 139.324219 277.148438 C 145.195312 282.691406 158.582031 289.089844 180.574219 289.089844 C 205.972656 289.089844 216.15625 283.355469 221.824219 277.746094 C 222.820312 276.761719 223.886719 275.484375 224.988281 273.945312 C 225.292969 274.164062 225.625 274.359375 226.011719 274.507812 C 251.152344 284.121094 266.976562 253.539062 270.519531 240.582031 C 274.464844 226.148438 266.710938 218.195312 256.335938 216.90625"/><path fill="#0F0A0A" d="M 262.542969 240.296875 L 261.53125 240.148438 C 261.425781 240.867188 261.183594 241.84375 260.796875 242.972656 C 259.445312 246.941406 256.394531 252.8125 252.070312 257.597656 C 249.910156 259.992188 247.4375 262.121094 244.710938 263.640625 C 241.988281 265.15625 239.027344 266.070312 235.832031 266.070312 C 233.976562 266.070312 232.035156 265.761719 230.007812 265.066406 L 229.675781 266.039062 L 230.589844 266.5 C 235.167969 257.4375 239.550781 244.5 241.65625 228.648438 L 240.644531 228.511719 L 241.308594 229.289062 C 243.488281 227.425781 246.296875 226.320312 249.300781 226.320312 C 249.804688 226.320312 250.316406 226.351562 250.828125 226.414062 C 253.960938 226.804688 256.695312 227.90625 258.617188 229.714844 C 259.578125 230.625 260.34375 231.710938 260.882812 233.011719 C 261.417969 234.308594 261.722656 235.828125 261.722656 237.605469 C 261.722656 238.40625 261.664062 239.25 261.53125 240.148438 L 263.554688 240.445312 C 263.699219 239.453125 263.769531 238.507812 263.769531 237.605469 C 263.769531 235.597656 263.421875 233.800781 262.773438 232.230469 C 261.804688 229.871094 260.160156 228.046875 258.121094 226.761719 C 256.085938 225.472656 253.667969 224.707031 251.082031 224.382812 C 250.484375 224.3125 249.890625 224.273438 249.300781 224.273438 C 245.792969 224.273438 242.511719 225.566406 239.980469 227.734375 C 239.789062 227.898438 239.664062 228.125 239.628906 228.375 C 237.554688 244.003906 233.230469 256.738281 228.765625 265.578125 C 228.628906 265.839844 228.617188 266.148438 228.730469 266.425781 C 228.839844 266.699219 229.066406 266.910156 229.347656 267.007812 C 231.578125 267.769531 233.75 268.117188 235.832031 268.117188 C 239.933594 268.117188 243.679688 266.769531 246.960938 264.679688 C 251.890625 261.542969 255.820312 256.761719 258.640625 252.148438 C 260.050781 249.839844 261.179688 247.574219 262.003906 245.558594 C 262.832031 243.539062 263.359375 241.789062 263.554688 240.445312 Z M 256.335938 216.90625 L 256.460938 215.890625 C 255.628906 215.785156 254.804688 215.734375 253.988281 215.734375 C 248.960938 215.734375 244.285156 217.640625 240.726562 220.824219 L 241.40625 221.585938 L 242.425781 221.671875 C 242.769531 217.582031 242.960938 213.328125 242.960938 208.917969 C 242.960938 208.648438 242.851562 208.386719 242.660156 208.195312 C 242.46875 208.003906 242.207031 207.894531 241.9375 207.894531 C 227.617188 207.894531 130.800781 207.894531 119.210938 207.894531 C 118.667969 207.894531 118.21875 208.320312 118.1875 208.859375 C 118.070312 210.832031 118.015625 212.78125 118.015625 214.710938 C 118.015625 230.945312 121.917969 245.539062 126.425781 256.664062 C 128.683594 262.222656 131.089844 266.917969 133.246094 270.519531 C 134.324219 272.324219 135.339844 273.855469 136.246094 275.085938 C 137.15625 276.320312 137.949219 277.257812 138.621094 277.894531 C 141.695312 280.792969 146.632812 283.832031 153.578125 286.167969 C 160.523438 288.5 169.480469 290.113281 180.574219 290.113281 C 193.347656 290.109375 202.351562 288.671875 208.917969 286.492188 C 215.484375 284.316406 219.613281 281.375 222.542969 278.472656 C 223.589844 277.433594 224.691406 276.113281 225.820312 274.539062 L 224.988281 273.945312 L 224.390625 274.777344 C 224.746094 275.027344 225.15625 275.277344 225.644531 275.464844 C 229.074219 276.777344 232.363281 277.371094 235.480469 277.371094 C 240.605469 277.371094 245.257812 275.765625 249.347656 273.207031 C 255.492188 269.371094 260.421875 263.421875 264.128906 257.375 C 267.835938 251.324219 270.320312 245.179688 271.503906 240.851562 C 272.242188 238.15625 272.585938 235.660156 272.585938 233.367188 C 272.59375 228.195312 270.800781 224.035156 267.859375 221.101562 C 264.917969 218.160156 260.890625 216.441406 256.460938 215.890625 L 256.210938 217.921875 C 260.277344 218.425781 263.859375 219.996094 266.410156 222.550781 C 268.960938 225.109375 270.535156 228.65625 270.542969 233.367188 C 270.542969 235.453125 270.226562 237.769531 269.53125 240.3125 C 268.039062 245.792969 264.21875 254.660156 258.40625 262.050781 C 255.503906 265.75 252.101562 269.078125 248.265625 271.472656 C 244.429688 273.863281 240.175781 275.320312 235.480469 275.324219 C 232.621094 275.324219 229.59375 274.78125 226.375 273.554688 C 226.089844 273.441406 225.84375 273.300781 225.582031 273.113281 C 225.363281 272.953125 225.09375 272.890625 224.820312 272.933594 C 224.550781 272.976562 224.316406 273.125 224.15625 273.347656 C 223.078125 274.851562 222.046875 276.085938 221.105469 277.015625 C 218.363281 279.726562 214.566406 282.457031 208.273438 284.550781 C 201.984375 286.636719 193.195312 288.066406 180.574219 288.066406 C 169.675781 288.066406 160.941406 286.480469 154.230469 284.226562 C 147.515625 281.976562 142.824219 279.046875 140.023438 276.402344 C 139.496094 275.90625 138.75 275.042969 137.894531 273.875 C 134.875 269.769531 130.394531 261.921875 126.695312 251.640625 C 122.996094 241.355469 120.0625 228.625 120.0625 214.710938 C 120.0625 212.820312 120.117188 210.910156 120.230469 208.980469 L 119.210938 208.917969 L 119.210938 209.941406 C 130.800781 209.941406 227.617188 209.941406 241.9375 209.941406 L 241.9375 208.917969 L 240.914062 208.917969 C 240.914062 213.269531 240.726562 217.464844 240.386719 221.5 C 240.351562 221.917969 240.574219 222.316406 240.949219 222.5 C 241.324219 222.6875 241.773438 222.628906 242.085938 222.347656 C 245.289062 219.492188 249.484375 217.78125 253.988281 217.78125 C 254.71875 217.78125 255.464844 217.828125 256.210938 217.921875 L 256.335938 216.90625"/><path fill="#F03BA4" d="M 241.679688 209.089844 C 241.679688 214.554688 214.207031 218.984375 180.316406 218.984375 C 146.429688 218.984375 118.953125 214.554688 118.953125 209.089844 C 118.953125 203.628906 146.429688 199.199219 180.316406 199.199219 C 214.207031 199.199219 241.679688 203.628906 241.679688 209.089844"/><g clip-path="url(#c)"><path fill="#0F0A0A" d="M 241.679688 209.089844 L 240.65625 209.089844 C 240.65625 209.214844 240.625 209.351562 240.5 209.558594 C 240.269531 209.9375 239.652344 210.484375 238.65625 211.015625 C 236.917969 211.964844 234.09375 212.910156 230.449219 213.746094 C 224.976562 215.011719 217.636719 216.070312 209.070312 216.808594 C 200.503906 217.542969 190.714844 217.960938 180.316406 217.960938 C 163.417969 217.960938 148.117188 216.855469 137.089844 215.078125 C 131.578125 214.1875 127.132812 213.128906 124.140625 211.988281 C 122.644531 211.417969 121.515625 210.824219 120.832031 210.28125 C 120.488281 210.011719 120.261719 209.757812 120.136719 209.558594 C 120.007812 209.351562 119.976562 209.214844 119.976562 209.089844 C 119.976562 208.964844 120.007812 208.828125 120.136719 208.625 C 120.367188 208.246094 120.984375 207.699219 121.980469 207.167969 C 123.71875 206.21875 126.539062 205.273438 130.1875 204.4375 C 135.660156 203.171875 143 202.113281 151.5625 201.375 C 160.128906 200.640625 169.917969 200.222656 180.316406 200.222656 C 197.214844 200.222656 212.519531 201.328125 223.546875 203.105469 C 229.054688 203.996094 233.503906 205.054688 236.496094 206.195312 C 237.988281 206.765625 239.117188 207.359375 239.800781 207.902344 C 240.144531 208.171875 240.375 208.421875 240.5 208.625 C 240.625 208.828125 240.65625 208.964844 240.65625 209.089844 L 242.703125 209.089844 C 242.703125 208.53125 242.523438 207.996094 242.230469 207.535156 C 241.675781 206.667969 240.789062 206 239.628906 205.367188 C 237.597656 204.269531 234.65625 203.308594 230.910156 202.441406 C 225.292969 201.144531 217.878906 200.082031 209.246094 199.335938 C 200.617188 198.59375 190.769531 198.175781 180.316406 198.175781 C 163.324219 198.175781 147.945312 199.285156 136.761719 201.085938 C 131.167969 201.988281 126.628906 203.058594 123.410156 204.285156 C 121.800781 204.902344 120.519531 205.546875 119.566406 206.292969 C 119.09375 206.667969 118.695312 207.070312 118.40625 207.535156 C 118.113281 207.996094 117.929688 208.53125 117.929688 209.089844 C 117.929688 209.652344 118.113281 210.1875 118.40625 210.648438 C 118.960938 211.515625 119.847656 212.183594 121.003906 212.816406 C 123.039062 213.914062 125.976562 214.875 129.726562 215.742188 C 135.34375 217.039062 142.757812 218.101562 151.386719 218.847656 C 160.019531 219.589844 169.863281 220.007812 180.316406 220.007812 C 197.308594 220.007812 212.6875 218.902344 223.871094 217.097656 C 229.464844 216.195312 234.003906 215.125 237.222656 213.898438 C 238.835938 213.28125 240.117188 212.636719 241.066406 211.890625 C 241.542969 211.515625 241.933594 211.113281 242.230469 210.648438 C 242.523438 210.1875 242.703125 209.652344 242.703125 209.089844 L 241.679688 209.089844"/></g><path fill="#FFF" d="M 241.683594 209.097656 C 241.683594 210.898438 238.679688 212.601562 233.441406 214.03125 C 222.824219 217 203.003906 218.984375 180.320312 218.984375 C 157.636719 218.984375 137.816406 217 127.199219 214.03125 C 121.960938 212.601562 118.957031 210.898438 118.957031 209.097656 C 118.957031 203.632812 146.429688 199.195312 180.320312 199.195312 C 214.210938 199.195312 241.683594 203.632812 241.683594 209.097656"/><g clip-path="url(#d)"><path fill="#0F0A0A" d="M 241.683594 209.097656 L 240.660156 209.097656 C 240.660156 209.179688 240.644531 209.265625 240.597656 209.375 C 240.519531 209.566406 240.328125 209.835938 239.980469 210.140625 C 239.457031 210.597656 238.59375 211.109375 237.445312 211.601562 C 236.292969 212.097656 234.855469 212.585938 233.171875 213.046875 L 233.167969 213.046875 C 227.957031 214.503906 220.386719 215.738281 211.308594 216.601562 C 202.230469 217.464844 191.632812 217.960938 180.320312 217.960938 C 169.007812 217.960938 158.410156 217.464844 149.332031 216.601562 C 140.253906 215.738281 132.683594 214.503906 127.476562 213.046875 L 127.46875 213.046875 C 124.90625 212.34375 122.90625 211.574219 121.632812 210.820312 C 120.996094 210.449219 120.546875 210.078125 120.292969 209.769531 C 120.164062 209.617188 120.082031 209.484375 120.039062 209.375 C 119.992188 209.265625 119.980469 209.179688 119.976562 209.097656 C 119.980469 208.976562 120.007812 208.839844 120.136719 208.632812 C 120.367188 208.25 120.984375 207.707031 121.980469 207.171875 C 123.71875 206.226562 126.542969 205.277344 130.1875 204.4375 C 135.660156 203.171875 143 202.109375 151.566406 201.375 C 160.128906 200.636719 169.921875 200.214844 180.320312 200.214844 C 197.21875 200.214844 212.523438 201.324219 223.550781 203.105469 C 229.058594 203.996094 233.503906 205.058594 236.496094 206.199219 C 237.988281 206.769531 239.121094 207.363281 239.804688 207.90625 C 240.148438 208.175781 240.375 208.429688 240.5 208.632812 C 240.628906 208.839844 240.65625 208.976562 240.660156 209.097656 L 242.707031 209.097656 C 242.707031 208.539062 242.523438 208 242.230469 207.542969 C 241.675781 206.675781 240.789062 206.007812 239.632812 205.371094 C 237.601562 204.273438 234.660156 203.3125 230.914062 202.441406 C 225.296875 201.144531 217.882812 200.078125 209.25 199.335938 C 200.617188 198.589844 190.773438 198.167969 180.320312 198.167969 C 163.324219 198.167969 147.945312 199.28125 136.761719 201.085938 C 131.171875 201.988281 126.628906 203.0625 123.410156 204.289062 C 121.800781 204.90625 120.519531 205.554688 119.566406 206.300781 C 119.09375 206.675781 118.699219 207.078125 118.40625 207.542969 C 118.113281 208 117.929688 208.539062 117.933594 209.097656 C 117.933594 209.46875 118.011719 209.828125 118.152344 210.164062 C 118.398438 210.75 118.808594 211.242188 119.320312 211.6875 C 120.09375 212.355469 121.117188 212.933594 122.386719 213.480469 C 123.660156 214.027344 125.179688 214.539062 126.929688 215.019531 L 126.921875 215.019531 C 132.332031 216.527344 139.980469 217.769531 149.136719 218.640625 C 158.292969 219.511719 168.945312 220.007812 180.320312 220.007812 C 191.691406 220.007812 202.347656 219.511719 211.503906 218.640625 C 220.660156 217.769531 228.308594 216.527344 233.714844 215.019531 L 233.710938 215.019531 C 236.382812 214.289062 238.507812 213.488281 240.046875 212.585938 C 240.8125 212.128906 241.441406 211.648438 241.914062 211.085938 C 242.152344 210.800781 242.347656 210.496094 242.488281 210.164062 C 242.625 209.828125 242.707031 209.46875 242.707031 209.097656 L 241.683594 209.097656"/></g><path fill="#895A30" d="M 233.441406 214.03125 C 222.824219 217 203.003906 218.984375 180.320312 218.984375 C 157.636719 218.984375 137.816406 217 127.199219 214.03125 C 137.816406 211.082031 157.636719 209.097656 180.320312 209.097656 C 203.003906 209.097656 222.824219 211.082031 233.441406 214.03125"/><path fill="#0F0A0A" d="M 233.441406 214.03125 L 233.167969 213.046875 C 227.957031 214.503906 220.386719 215.738281 211.308594 216.601562 C 202.230469 217.464844 191.632812 217.960938 180.320312 217.960938 C 169.007812 217.960938 158.410156 217.464844 149.332031 216.601562 C 140.253906 215.738281 132.683594 214.503906 127.476562 213.046875 L 127.199219 214.03125 L 127.472656 215.019531 C 132.683594 213.570312 140.253906 212.339844 149.332031 211.476562 C 158.410156 210.617188 169.007812 210.121094 180.320312 210.121094 C 191.632812 210.121094 202.230469 210.617188 211.308594 211.476562 C 220.386719 212.339844 227.957031 213.570312 233.167969 215.019531 L 233.441406 214.03125 L 233.167969 213.046875 L 233.441406 214.03125 L 233.714844 213.046875 C 228.308594 211.546875 220.660156 210.308594 211.503906 209.441406 C 202.347656 208.574219 191.691406 208.074219 180.320312 208.074219 C 168.945312 208.074219 158.292969 208.574219 149.136719 209.441406 C 139.980469 210.308594 132.332031 211.546875 126.925781 213.046875 L 123.386719 214.027344 L 126.921875 215.019531 C 132.332031 216.527344 139.980469 217.769531 149.136719 218.640625 C 158.292969 219.511719 168.945312 220.007812 180.320312 220.007812 C 191.691406 220.007812 202.347656 219.511719 211.503906 218.640625 C 220.660156 217.769531 228.308594 216.527344 233.714844 215.019531 L 237.253906 214.027344 L 233.714844 213.046875 L 233.441406 214.03125"/><g clip-path="url(#e)"><path fill="#0F0A0A" d="M 169.28125 213.785156 C 169.285156 211.007812 169.824219 209.003906 170.625 207.3125 C 171.226562 206.042969 171.992188 204.949219 172.824219 203.863281 C 174.070312 202.238281 175.488281 200.644531 176.609375 198.566406 C 177.734375 196.488281 178.519531 193.925781 178.515625 190.5 C 178.515625 187.457031 177.902344 185.09375 176.972656 183.148438 C 176.277344 181.6875 175.414062 180.464844 174.546875 179.332031 C 173.234375 177.632812 171.914062 176.128906 170.9375 174.308594 C 169.960938 172.488281 169.285156 170.339844 169.28125 167.214844 C 169.28125 166.652344 168.824219 166.191406 168.257812 166.191406 C 167.691406 166.191406 167.234375 166.652344 167.234375 167.214844 C 167.234375 170.261719 167.847656 172.621094 168.777344 174.566406 C 169.472656 176.027344 170.332031 177.253906 171.203125 178.382812 C 172.511719 180.082031 173.832031 181.585938 174.808594 183.40625 C 175.785156 185.230469 176.464844 187.375 176.46875 190.5 C 176.464844 193.277344 175.925781 195.28125 175.125 196.972656 C 174.523438 198.242188 173.757812 199.335938 172.925781 200.421875 C 171.679688 202.046875 170.257812 203.640625 169.136719 205.71875 C 168.015625 207.800781 167.230469 210.359375 167.234375 213.785156 C 167.234375 214.351562 167.691406 214.808594 168.257812 214.808594 C 168.824219 214.808594 169.28125 214.351562 169.28125 213.785156"/></g><path fill="#0F0A0A" d="M 179.339844 205.765625 C 179.34375 203.957031 179.691406 202.679688 180.203125 201.597656 C 180.589844 200.78125 181.085938 200.074219 181.632812 199.359375 C 182.457031 198.285156 183.417969 197.210938 184.1875 195.78125 C 184.960938 194.351562 185.503906 192.574219 185.5 190.242188 C 185.5 188.167969 185.078125 186.535156 184.4375 185.195312 C 183.957031 184.1875 183.367188 183.351562 182.785156 182.589844 C 181.898438 181.445312 181.035156 180.457031 180.40625 179.289062 C 179.78125 178.117188 179.347656 176.753906 179.339844 174.71875 C 179.339844 174.15625 178.882812 173.699219 178.320312 173.699219 C 177.753906 173.699219 177.296875 174.15625 177.296875 174.71875 C 177.292969 176.792969 177.714844 178.429688 178.355469 179.769531 C 178.835938 180.773438 179.425781 181.613281 180.011719 182.375 C 180.898438 183.519531 181.761719 184.507812 182.386719 185.675781 C 183.015625 186.851562 183.449219 188.210938 183.453125 190.242188 C 183.449219 192.046875 183.105469 193.328125 182.59375 194.410156 C 182.203125 195.222656 181.710938 195.933594 181.164062 196.648438 C 180.339844 197.71875 179.378906 198.796875 178.605469 200.226562 C 177.832031 201.65625 177.292969 203.429688 177.296875 205.765625 C 177.296875 206.328125 177.753906 206.789062 178.320312 206.789062 C 178.882812 206.789062 179.339844 206.328125 179.339844 205.765625"/><path fill="#0F0A0A" d="M 188.945312 213.785156 C 188.949219 211.371094 189.414062 209.636719 190.109375 208.171875 C 190.632812 207.074219 191.292969 206.121094 192.023438 205.175781 C 193.109375 203.757812 194.359375 202.355469 195.347656 200.519531 C 196.339844 198.683594 197.03125 196.417969 197.027344 193.402344 C 197.03125 190.71875 196.488281 188.628906 195.664062 186.910156 C 195.054688 185.617188 194.292969 184.539062 193.53125 183.546875 C 192.378906 182.050781 191.230469 180.742188 190.382812 179.164062 C 189.535156 177.585938 188.949219 175.730469 188.945312 173.015625 C 188.945312 172.449219 188.488281 171.992188 187.925781 171.992188 C 187.359375 171.992188 186.902344 172.449219 186.902344 173.015625 C 186.898438 175.695312 187.441406 177.785156 188.261719 179.507812 C 188.878906 180.800781 189.636719 181.878906 190.402344 182.871094 C 191.550781 184.363281 192.699219 185.671875 193.546875 187.25 C 194.394531 188.832031 194.980469 190.683594 194.984375 193.402344 C 194.980469 195.816406 194.515625 197.546875 193.820312 199.011719 C 193.296875 200.109375 192.636719 201.0625 191.90625 202.007812 C 190.820312 203.425781 189.574219 204.828125 188.582031 206.664062 C 187.589844 208.5 186.894531 210.765625 186.902344 213.785156 C 186.902344 214.351562 187.359375 214.808594 187.925781 214.808594 C 188.488281 214.808594 188.945312 214.351562 188.945312 213.785156"/><g clip-path="url(#f)"><path fill="#FFF" d="M 225.863281 210.363281 L 225.527344 216.851562 L 201.90625 216.851562 L 202.324219 210.363281 Z M 220.4375 181.917969 C 220.4375 181.917969 221.039062 171.320312 212.128906 160.34375 C 214.171875 150.199219 211.433594 136.609375 208.832031 134.609375 C 203.921875 134.894531 193.667969 138.488281 187.96875 147.53125 C 182.203125 145.476562 174.066406 144.933594 165.855469 146.984375 C 165.855469 146.984375 156.136719 136.777344 144.746094 134.609375 C 139.214844 138.640625 140.949219 158.292969 140.890625 160.761719 C 137.039062 167.632812 122.460938 188.625 146.421875 203.347656 C 143.238281 211.535156 141.96875 216.738281 141.96875 216.738281 L 201.039062 216.851562 C 201.039062 216.851562 202.132812 205.339844 203.304688 199.644531 C 204.476562 193.945312 205.566406 184.390625 208.074219 183.273438 C 210.582031 182.152344 212.542969 184.808594 212.542969 184.808594 C 212.542969 184.808594 215.378906 177.851562 217.589844 184.054688 C 216.957031 181.707031 220.4375 181.917969 220.4375 181.917969 Z M 220.4375 181.917969"/></g><path fill="#895A30" d="M 204.835938 190.757812 C 206.679688 181.457031 210.449219 182.378906 212.542969 184.808594 C 212.878906 181.960938 215.894531 181.039062 217.652344 183.300781 C 224.4375 176.597656 225.527344 196.484375 225.527344 196.484375 L 225.527344 209.355469 C 225.527344 209.355469 224.007812 214.300781 213.59375 214.300781 C 204.503906 214.300781 201.90625 210.277344 201.90625 210.277344 C 201.90625 210.277344 202.992188 200.058594 204.835938 190.757812 Z M 166.148438 147.105469 C 164.136719 144.09375 151.195312 133.609375 144.914062 134.621094 C 137.792969 142.832031 141.226562 160.761719 141.226562 160.761719 C 141.226562 160.761719 135.347656 168.628906 134.644531 176.230469 C 134.871094 181.832031 150.109375 191.652344 167.53125 177.066406 C 184.085938 163.207031 170.753906 146.265625 170.753906 146.265625 C 170.753906 146.265625 168.492188 146.425781 166.148438 147.105469 Z M 207.410156 139.480469 L 201.90625 150.652344 C 201.90625 150.652344 206.824219 154.730469 208.121094 158.246094 C 209.414062 154.894531 209.761719 146.351562 207.410156 139.480469 Z M 207.410156 139.480469"/><g clip-path="url(#g)"><g mask="url(#h)"><g><g clip-path="url(#i)" transform="translate(133 137)"><g clip-path="url(#j)"><path fill="#222120" d="M 92.527344 79.851562 C 92.527344 79.851562 92.527344 79.851562 82.351562 79.851562 C 90.265625 79.132812 91.230469 57.78125 91.230469 57.78125 Z M 17.832031 13.652344 C 17.832031 13.652344 13.476562 4.601562 12.75 2.480469 C 10.90625 6.949219 10.605469 18.121094 12.039062 21.246094 C 14.867188 17.804688 17.832031 13.652344 17.832031 13.652344 Z M 68.085938 79.851562 C 69.015625 74.011719 70.296875 65.976562 71.324219 59.5 C 71.320312 59.503906 71.316406 59.503906 71.3125 59.503906 L 72.363281 47.875 C 72.296875 47.957031 72.210938 48.070312 72.109375 48.222656 C 71.308594 49.375 69.503906 52.699219 68.042969 60.597656 C 62.0625 62.378906 54.183594 63.605469 43.8125 63.675781 C 3.601562 63.402344 0.863281 45.761719 0.863281 45.761719 C 0.863281 45.761719 0.136719 48.140625 1.679688 52.027344 C 1.230469 51.644531 0.886719 51.34375 0.699219 51.160156 C 1.882812 60.070312 13.476562 66.9375 13.476562 66.9375 L 8.96875 79.851562 C 8.96875 79.851562 13.699219 79.851562 18.835938 79.851562 C 21.964844 69.640625 25.746094 69.910156 25.746094 69.910156 C 33.617188 71.632812 41.175781 72.097656 43.8125 72.097656 C 46.449219 72.097656 54.007812 71.632812 61.882812 69.910156 C 61.882812 69.910156 63.8125 69.773438 66.058594 73.429688 C 65.242188 78.632812 64.980469 79.847656 64.980469 79.847656 Z M 54.757812 10.53125 L 59.394531 11.863281 C 59.394531 11.863281 61.125 5.632812 68.691406 0.367188 C 63.414062 1.808594 57.714844 5.621094 54.757812 10.53125 Z M 18.566406 0.367188 C 26.136719 5.632812 27.867188 11.863281 27.867188 11.863281 L 32.5 10.53125 C 29.542969 5.621094 23.84375 1.808594 18.566406 0.367188 Z M 46.871094 49.457031 C 46.871094 49.457031 43.074219 50.332031 39.835938 49.363281 C 40.28125 53.085938 45.757812 53.421875 46.871094 49.457031 Z M 46.871094 49.457031"/></g></g></g></g></g><g clip-path="url(#k)"><path fill="#FFF" d="M 141.808594 145.464844 C 141.808594 145.464844 140.957031 157.136719 144.945312 162.71875 C 140.722656 165.789062 133.484375 175.761719 133.691406 183.886719 C 132.097656 178.609375 134.382812 169.585938 140.695312 161.515625 C 140.054688 156.738281 140.695312 150.167969 141.808594 145.464844 Z M 203.46875 205.816406 C 205.730469 189.035156 209.59375 183.902344 209.59375 183.902344 C 203.234375 182.183594 202.882812 198.351562 203.46875 205.816406 Z M 138.222656 194.78125 C 138.222656 194.78125 146 201.898438 150.777344 202.652344 C 148.851562 205.085938 144.945312 216.851562 144.945312 216.851562 L 141.476562 216.851562 L 146 203.660156 C 146 203.660156 138.402344 199.894531 138.222656 194.78125 Z M 138.222656 194.78125"/></g><g clip-path="url(#l)"><path fill="#2B0806" d="M 226.785156 216.851562 C 225.714844 216.851562 224.3125 216.851562 224.3125 216.851562 C 224.292969 212.769531 225.011719 191.679688 222.871094 184.574219 C 221.738281 180.8125 218.207031 182.609375 217.726562 185.742188 C 217.410156 184.171875 217.046875 182.480469 215.4375 182.648438 C 213.457031 182.855469 212.644531 186.359375 212.644531 186.359375 C 212.644531 186.359375 211.050781 183.804688 209.59375 183.902344 C 207.292969 184.050781 205.773438 187.433594 204.671875 194.632812 C 204.050781 198.683594 202.453125 216.851562 202.453125 216.851562 L 200.398438 216.851562 C 200.398438 216.851562 201.527344 204.328125 201.890625 201.613281 L 201.902344 201.539062 L 202.195312 199.421875 C 202.855469 194.773438 203.59375 190.558594 204.304688 187.890625 C 206.152344 180.945312 210.347656 180.214844 212.238281 183.550781 C 213.210938 179.976562 217.421875 179.378906 217.867188 182.523438 C 218.003906 181.867188 218.660156 181.078125 219.582031 180.746094 C 219.214844 175.386719 216.871094 168.917969 211.214844 161.179688 C 212.449219 158.582031 213.769531 146.359375 208.578125 135.625 C 205.953125 135.625 197.160156 137.773438 188.671875 147.003906 C 190.113281 147.503906 191.46875 148.117188 192.605469 148.863281 C 192.253906 148.878906 184.5 146.675781 176.746094 146.675781 C 168.992188 146.675781 161.238281 148.878906 160.886719 148.863281 C 162.023438 148.117188 163.378906 147.503906 164.820312 147.003906 C 156.332031 137.773438 147.539062 135.625 144.914062 135.625 C 139.722656 146.359375 141.039062 158.582031 142.277344 161.179688 C 121.792969 189.210938 144.707031 200.570312 147.96875 203.113281 C 146.128906 206.886719 142.734375 216.851562 142.734375 216.851562 L 140.457031 216.851562 C 140.457031 216.851562 142.660156 209.90625 145.339844 203.707031 C 124.890625 191.679688 131.507812 171.988281 139.886719 161.515625 C 137.375 146.6875 142.566406 133.949219 144.578125 133.609375 C 157.898438 136.160156 164.707031 144.097656 166.488281 146.484375 C 168.878906 145.8125 172.8125 144.832031 176.746094 144.832031 C 180.675781 144.832031 184.605469 145.8125 187.003906 146.484375 C 188.785156 144.097656 195.59375 136.160156 208.914062 133.609375 C 210.925781 133.949219 216.117188 146.6875 213.605469 161.515625 C 217.582031 166.484375 221.15625 173.53125 221.632812 180.847656 C 222.324219 181.152344 223.050781 181.75 223.765625 182.769531 C 225.097656 184.675781 225.296875 187.128906 225.925781 192.078125 C 226.507812 196.644531 226.785156 214.152344 226.785156 216.851562 Z M 207.410156 139.480469 C 207.410156 139.480469 203.589844 144.886719 200.78125 150.644531 C 202.667969 151.878906 206.539062 155.902344 208.121094 158.246094 C 208.863281 156.90625 204.996094 151.222656 203.027344 150.121094 C 205.078125 147.941406 207.410156 139.480469 207.410156 139.480469 Z M 145.75 139.480469 C 145.75 139.480469 149.570312 144.886719 152.378906 150.644531 C 150.496094 151.878906 146.621094 155.902344 145.039062 158.246094 C 144.296875 156.90625 148.164062 151.222656 150.132812 150.121094 C 148.082031 147.941406 145.75 139.480469 145.75 139.480469 Z M 156.40625 166.558594 C 152.144531 167.5625 149.253906 171.820312 148.371094 175.351562 C 148.238281 175.886719 148.527344 176.316406 149.125 176.464844 C 150.09375 176.707031 151.855469 176.214844 152.113281 175.175781 C 152.453125 173.820312 153.027344 172.589844 153.824219 171.515625 C 154.425781 170.710938 155.597656 169.316406 156.703125 169.039062 C 157.589844 168.816406 158.441406 170.269531 158.898438 171.050781 L 159.003906 171.234375 C 159.789062 172.554688 160.421875 174.085938 160.882812 175.78125 C 161.046875 176.378906 161.632812 176.613281 162.277344 176.613281 C 162.546875 176.613281 162.828125 176.570312 163.097656 176.5 C 164.179688 176.203125 164.800781 175.496094 164.605469 174.78125 C 162.898438 168.539062 160.0625 165.695312 156.40625 166.558594 Z M 204.785156 174.78125 C 203.074219 168.539062 200.242188 165.695312 196.585938 166.558594 C 192.320312 167.5625 189.429688 171.820312 188.550781 175.351562 C 188.46875 175.675781 188.546875 175.972656 188.765625 176.1875 C 189.226562 176.628906 190.144531 176.570312 190.792969 176.386719 C 191.597656 176.15625 192.160156 175.703125 192.289062 175.175781 C 192.628906 173.820312 193.203125 172.585938 194 171.515625 C 194.601562 170.710938 195.773438 169.316406 196.878906 169.039062 C 197.769531 168.816406 198.621094 170.269531 199.074219 171.050781 L 199.183594 171.234375 C 199.964844 172.554688 200.597656 174.085938 201.0625 175.78125 C 201.164062 176.160156 201.464844 176.433594 201.910156 176.550781 C 202.078125 176.59375 202.265625 176.613281 202.457031 176.613281 C 203.175781 176.613281 203.996094 176.320312 204.449219 175.863281 C 204.769531 175.542969 204.886719 175.15625 204.785156 174.78125 Z M 182.761719 176.660156 C 182.308594 176.902344 182.09375 177.679688 182.539062 178.511719 C 182.792969 178.992188 182.519531 179.492188 182.332031 179.746094 C 181.84375 180.410156 180.96875 180.816406 180.296875 180.691406 C 179.136719 180.472656 178.4375 179.109375 177.957031 177.941406 C 177.734375 177.398438 177.261719 177.0625 176.730469 177.0625 C 176.199219 177.0625 175.726562 177.398438 175.503906 177.941406 C 175.113281 178.898438 174.378906 180.675781 173.167969 180.90625 C 172.652344 181 172.007812 180.75 171.496094 180.257812 C 170.738281 179.496094 170.964844 178.5 171.046875 178.226562 C 171.054688 178.207031 171.0625 178.1875 171.070312 178.160156 L 171.246094 177.6875 L 171.15625 177.6875 C 171.183594 177.195312 170.984375 176.773438 170.632812 176.632812 C 170.332031 176.507812 169.886719 176.601562 169.550781 177.234375 C 168.921875 178.410156 168.890625 179.808594 169.457031 180.976562 C 169.984375 182.058594 170.976562 182.804688 172.179688 183.015625 C 173.90625 183.324219 175.472656 182.59375 176.730469 180.90625 C 177.800781 182.34375 179.09375 183.085938 180.519531 183.085938 C 180.769531 183.085938 181.023438 183.0625 181.28125 183.015625 C 182.484375 182.804688 183.476562 182.058594 184.003906 180.976562 C 184.570312 179.808594 184.539062 178.410156 183.910156 177.234375 C 183.546875 176.554688 183.066406 176.5 182.761719 176.660156 Z M 182.761719 176.660156"/></g><path fill="#222120" d="M 215.027344 193.550781 C 214.402344 192.84375 211.898438 190.933594 210.285156 194.050781 C 208.675781 197.167969 213.070312 200.285156 215.027344 200.285156 C 216.988281 200.285156 221.382812 197.167969 219.769531 194.050781 C 218.160156 190.933594 215.65625 192.84375 215.027344 193.550781 Z M 216.566406 188.300781 C 216.566406 187.347656 216.019531 186.578125 215.351562 186.578125 C 214.679688 186.578125 214.132812 187.347656 214.132812 188.300781 C 214.132812 189.25 214.679688 190.019531 215.351562 190.019531 C 216.019531 190.019531 216.566406 189.25 216.566406 188.300781 Z M 220.332031 187.613281 C 219.652344 187.507812 218.972656 188.144531 218.8125 189.027344 C 218.652344 189.914062 219.074219 190.714844 219.753906 190.820312 C 220.4375 190.921875 221.117188 190.289062 221.277344 189.402344 C 221.4375 188.515625 221.015625 187.714844 220.332031 187.613281 Z M 210.511719 190.90625 C 211.199219 190.707031 211.503906 189.828125 211.191406 188.941406 C 210.882812 188.058594 210.070312 187.503906 209.382812 187.703125 C 208.695312 187.902344 208.390625 188.78125 208.699219 189.664062 C 209.011719 190.550781 209.820312 191.105469 210.511719 190.90625 Z M 210.511719 190.90625"/><g><g><g><path d="M -4.40625 -29.921875 C -0.632812 -28.992188 2.71875 -27.851562 5.65625 -26.5 L 5.90625 -26.359375 L 6.1875 -26.15625 C 6.40625 -26.070312 6.578125 -26.125 6.703125 -26.3125 C 6.804688 -26.457031 6.78125 -26.613281 6.625 -26.78125 L 6.390625 -26.984375 L 6.203125 -27.15625 L 6.03125 -27.421875 L 5.890625 -27.671875 L 6.234375 -27.65625 L 6.5 -27.59375 C 8.351562 -26.5 9.71875 -25.015625 10.59375 -23.140625 C 11.53125 -21.078125 11.625 -19.078125 10.875 -17.140625 C 7.851562 -9.398438 1.84375 -5.796875 -7.15625 -6.328125 C -15.363281 -6.804688 -23.226562 -7.738281 -30.75 -9.125 C -31.46875 -9.269531 -31.851562 -8.875 -31.90625 -7.9375 L -32.09375 -4.0625 C -32.164062 -2.570312 -32.304688 -1.300781 -32.515625 -0.25 L -32.609375 0.1875 L -32.734375 0.640625 C -32.859375 0.960938 -33.054688 1.113281 -33.328125 1.09375 C -33.546875 1.082031 -33.703125 0.921875 -33.796875 0.609375 L -33.875 0.15625 L -33.9375 -0.265625 C -34.25 -3.492188 -34.320312 -6.203125 -34.15625 -8.390625 C -34.0625 -9.429688 -34.53125 -10.050781 -35.5625 -10.25 C -40.8125 -11.289062 -45.34375 -12.367188 -49.15625 -13.484375 L -49.953125 -13.65625 L -50.796875 -13.828125 C -51.410156 -14.015625 -51.671875 -14.347656 -51.578125 -14.828125 L -51.421875 -16.21875 C -51.335938 -16.789062 -51.238281 -17.253906 -51.125 -17.609375 C -50.832031 -18.628906 -50.210938 -19.332031 -49.265625 -19.71875 C -47.960938 -20.269531 -46.421875 -20.597656 -44.640625 -20.703125 L -42.28125 -20.71875 L -39.90625 -20.671875 C -37.695312 -20.648438 -35.578125 -20.582031 -33.546875 -20.46875 C -32.878906 -20.4375 -32.492188 -20.8125 -32.390625 -21.59375 L -32.078125 -23.84375 L -31.796875 -26.09375 C -31.503906 -27.820312 -31.125 -29.289062 -30.65625 -30.5 L -30.5625 -30.796875 L -30.484375 -31.109375 C -30.398438 -31.335938 -30.242188 -31.492188 -30.015625 -31.578125 L -29.875 -30.9375 L -29.78125 -30.3125 L -30.09375 -21.765625 C -30.113281 -20.867188 -29.726562 -20.367188 -28.9375 -20.265625 L -15.375 -18.265625 L -1.8125 -16.34375 C -0.832031 -16.21875 0.382812 -16.15625 1.84375 -16.15625 L 3.75 -16.140625 L 5.609375 -16.15625 L 6.015625 -16.171875 L 6.390625 -16.265625 C 8.410156 -16.640625 8.796875 -17.582031 7.546875 -19.09375 C 3.671875 -23.820312 -0.992188 -27.101562 -6.453125 -28.9375 L -6.84375 -29.015625 L -7.25 -29.125 C -7.507812 -29.238281 -7.625 -29.414062 -7.59375 -29.65625 C -7.53125 -29.976562 -7.359375 -30.109375 -7.078125 -30.046875 L -6.71875 -29.921875 L -6.359375 -29.875 L -5.296875 -29.90625 Z M -4.40625 -29.921875" transform="translate(88.776 236.105)"/></g></g></g><g><g><g><path d="M -13.328125 -24.578125 C -15.554688 -25.253906 -17.554688 -24.878906 -19.328125 -23.453125 C -20.191406 -22.753906 -20.597656 -21.757812 -20.546875 -20.46875 C -20.492188 -19.175781 -19.972656 -18.296875 -18.984375 -17.828125 C -18.453125 -17.554688 -17.863281 -17.234375 -17.21875 -16.859375 L -15.484375 -15.796875 C -14.046875 -14.898438 -12.875 -14.273438 -11.96875 -13.921875 C -10.207031 -13.222656 -8.429688 -13.019531 -6.640625 -13.3125 C -4.785156 -13.613281 -3.257812 -14.390625 -2.0625 -15.640625 C -1.144531 -16.554688 -1.085938 -17.445312 -1.890625 -18.3125 C -4.484375 -21.132812 -7.535156 -23.015625 -11.046875 -23.953125 Z M -14.9375 -5.015625 C -19.800781 -6.609375 -23.351562 -9.238281 -25.59375 -12.90625 C -26.644531 -14.632812 -27.128906 -16.488281 -27.046875 -18.46875 C -26.941406 -20.550781 -26.222656 -22.394531 -24.890625 -24 C -22.671875 -26.582031 -19.460938 -27.859375 -15.265625 -27.828125 C -14.179688 -27.828125 -12.953125 -27.609375 -11.578125 -27.171875 L -9.765625 -26.609375 L -7.953125 -25.9375 C -2.316406 -23.945312 1.523438 -21.472656 3.578125 -18.515625 C 5.242188 -16.148438 5.242188 -13.921875 3.578125 -11.828125 L 2.390625 -10.203125 L 1.21875 -8.59375 C 0.28125 -7.351562 -0.707031 -6.441406 -1.75 -5.859375 C -5.613281 -3.722656 -10.007812 -3.441406 -14.9375 -5.015625 Z M -14.9375 -5.015625" transform="translate(93.163 204.94)"/></g></g></g><g><g><g><path d="M -6.109375 -18.4375 L -9.046875 -20.09375 L -11.9375 -21.765625 C -12.738281 -22.253906 -13.226562 -22.03125 -13.40625 -21.09375 C -13.65625 -19.664062 -13.695312 -18.007812 -13.53125 -16.125 C -13.4375 -14.90625 -13.070312 -14.050781 -12.4375 -13.5625 C -10.664062 -12.132812 -9.078125 -11.140625 -7.671875 -10.578125 C -5.023438 -9.523438 -3.316406 -10.332031 -2.546875 -13 L -2.375 -13.6875 L -2.21875 -14.390625 C -1.957031 -15.390625 -2.285156 -16.148438 -3.203125 -16.671875 L -4.65625 -17.578125 L -6.078125 -18.484375 Z M -6.828125 -30.4375 C -4.367188 -29.113281 -1.476562 -27.671875 1.84375 -26.109375 C 7.125 -23.585938 10.929688 -20.609375 13.265625 -17.171875 L 13.859375 -16.390625 L 14.46875 -15.609375 C 14.9375 -14.960938 15.328125 -14.367188 15.640625 -13.828125 C 16.054688 -13.109375 16.382812 -12.441406 16.625 -11.828125 C 17.207031 -10.265625 17.148438 -9.035156 16.453125 -8.140625 C 16.171875 -7.785156 15.5 -7.75 14.4375 -8.03125 C 13.40625 -8.300781 12.660156 -8.671875 12.203125 -9.140625 C 11.898438 -9.398438 11.460938 -9.550781 10.890625 -9.59375 L 10.21875 -9.625 C 9.957031 -9.65625 9.742188 -9.710938 9.578125 -9.796875 L 7.1875 -10.84375 L 4.828125 -11.90625 C 4.378906 -12.125 4.082031 -11.976562 3.9375 -11.46875 C 3.3125 -9.40625 1.679688 -7.738281 -0.953125 -6.46875 C -3.554688 -5.207031 -5.914062 -4.914062 -8.03125 -5.59375 C -11.582031 -6.675781 -13.804688 -8.445312 -14.703125 -10.90625 C -16.003906 -14.53125 -16.203125 -18.320312 -15.296875 -22.28125 C -15.097656 -23.125 -15.359375 -23.75 -16.078125 -24.15625 C -21.628906 -27.539062 -26.71875 -30.664062 -31.34375 -33.53125 C -32.070312 -33.976562 -32.515625 -34.863281 -32.671875 -36.1875 C -32.835938 -37.5 -32.644531 -38.617188 -32.09375 -39.546875 C -31.59375 -40.359375 -30.953125 -40.910156 -30.171875 -41.203125 C -29.390625 -41.484375 -28.644531 -41.425781 -27.9375 -41.03125 C -27.320312 -40.664062 -26.566406 -40.289062 -25.671875 -39.90625 L -24.484375 -39.4375 L -23.296875 -38.953125 C -17.367188 -36.472656 -11.878906 -33.632812 -6.828125 -30.4375 Z M -6.828125 -30.4375" transform="translate(100.743 181.283)"/></g></g></g><g><g><g><path d="M -4.3125 -27.625 C -6.175781 -29.007812 -8.1875 -29.328125 -10.34375 -28.578125 C -11.394531 -28.203125 -12.109375 -27.398438 -12.484375 -26.171875 C -12.867188 -24.929688 -12.675781 -23.925781 -11.90625 -23.15625 C -11.5 -22.726562 -11.050781 -22.226562 -10.5625 -21.65625 L -9.296875 -20.078125 C -8.242188 -18.753906 -7.347656 -17.769531 -6.609375 -17.125 C -5.179688 -15.882812 -3.578125 -15.09375 -1.796875 -14.75 C 0.046875 -14.414062 1.742188 -14.640625 3.296875 -15.421875 C 4.472656 -15.972656 4.828125 -16.800781 4.359375 -17.90625 C 2.859375 -21.425781 0.617188 -24.21875 -2.359375 -26.28125 Z M -12.390625 -9.734375 C -16.429688 -12.867188 -18.898438 -16.535156 -19.796875 -20.734375 C -20.191406 -22.710938 -20.019531 -24.617188 -19.28125 -26.453125 C -18.488281 -28.390625 -17.195312 -29.882812 -15.40625 -30.9375 C -12.457031 -32.644531 -9.007812 -32.78125 -5.0625 -31.34375 C -4.039062 -30.976562 -2.953125 -30.363281 -1.796875 -29.5 L -0.28125 -28.34375 L 1.1875 -27.109375 C 5.832031 -23.335938 8.628906 -19.710938 9.578125 -16.234375 C 10.359375 -13.453125 9.609375 -11.351562 7.328125 -9.9375 L 5.671875 -8.8125 L 4.046875 -7.6875 C 2.734375 -6.832031 1.488281 -6.3125 0.3125 -6.125 C -4.050781 -5.394531 -8.285156 -6.597656 -12.390625 -9.734375 Z M -12.390625 -9.734375" transform="translate(113.43 157.438)"/></g></g></g><g><g><g><path d="M 9.078125 -25.109375 C 10.722656 -22.304688 10.632812 -19.554688 8.8125 -16.859375 C 8.40625 -16.253906 7.925781 -15.929688 7.375 -15.890625 C 6.9375 -15.867188 6.453125 -16.03125 5.921875 -16.375 C 3.148438 -18.101562 1.1875 -20.257812 0.03125 -22.84375 C -0.25 -23.40625 -0.628906 -24.082031 -1.109375 -24.875 L -1.765625 -25.890625 L -2.359375 -26.875 C -2.890625 -27.738281 -3.421875 -28.914062 -3.953125 -30.40625 L -4.578125 -32.203125 L -5.296875 -34 C -5.921875 -35.4375 -5.898438 -36.929688 -5.234375 -38.484375 C -4.742188 -39.609375 -3.878906 -40.816406 -2.640625 -42.109375 C -1.910156 -42.859375 -1.128906 -42.679688 -0.296875 -41.578125 C 0.960938 -39.585938 2.535156 -36.890625 4.421875 -33.484375 L 6.703125 -29.3125 Z M 16.609375 -37.078125 C 15.578125 -38.671875 14.132812 -40.269531 12.28125 -41.875 L 9.78125 -43.90625 L 7.25 -45.875 C 6.21875 -46.664062 5.367188 -47.226562 4.703125 -47.5625 C 3.628906 -48.082031 2.546875 -48.304688 1.453125 -48.234375 C 0.00390625 -48.128906 -1.066406 -47.742188 -1.765625 -47.078125 C -2.492188 -46.390625 -2.617188 -45.554688 -2.140625 -44.578125 C -1.773438 -43.878906 -2 -43.445312 -2.8125 -43.28125 C -5.164062 -42.78125 -7.242188 -41.085938 -9.046875 -38.203125 C -11.941406 -33.472656 -12.382812 -27.96875 -10.375 -21.6875 C -7.789062 -13.550781 -3.359375 -8.894531 2.921875 -7.71875 C 6.234375 -7.113281 8.644531 -7.082031 10.15625 -7.625 C 12.394531 -8.445312 14.050781 -10.6875 15.125 -14.34375 L 15.21875 -14.609375 C 15.25 -14.703125 15.285156 -14.753906 15.328125 -14.765625 C 15.503906 -14.816406 15.648438 -14.773438 15.765625 -14.640625 L 15.890625 -14.453125 L 15.984375 -14.265625 L 19.8125 -7.9375 C 20.25 -7.207031 20.875 -6.78125 21.6875 -6.65625 C 22.507812 -6.507812 23.242188 -6.691406 23.890625 -7.203125 L 24.515625 -7.765625 L 25.15625 -8.359375 C 25.664062 -8.796875 26.144531 -9.109375 26.59375 -9.296875 C 27.75 -9.796875 28.640625 -10.738281 29.265625 -12.125 C 29.867188 -13.507812 29.972656 -14.785156 29.578125 -15.953125 L 28.921875 -17.71875 C 28.660156 -18.332031 28.390625 -18.875 28.109375 -19.34375 C 24.421875 -25.5625 20.585938 -31.472656 16.609375 -37.078125 Z M 16.609375 -37.078125" transform="translate(138.697 126.671)"/></g></g></g><g><g><g><path d="M 9.84375 -23.734375 C 8.707031 -26.003906 6.953125 -28.082031 4.578125 -29.96875 C 4.234375 -30.25 3.847656 -30.375 3.421875 -30.34375 L -2.75 -29.796875 C -3.175781 -29.773438 -3.414062 -29.644531 -3.46875 -29.40625 C -3.507812 -29.164062 -3.394531 -28.96875 -3.125 -28.8125 C -2.632812 -28.53125 -2.226562 -28.148438 -1.90625 -27.671875 C -1.65625 -27.328125 -1.410156 -26.859375 -1.171875 -26.265625 C -0.921875 -25.703125 -0.585938 -25.113281 -0.171875 -24.5 L 1.015625 -22.875 C 2.078125 -21.46875 2.800781 -20.332031 3.1875 -19.46875 L 4.34375 -16.953125 L 5.625 -14.484375 C 6.726562 -12.378906 7.503906 -10.695312 7.953125 -9.4375 C 8.210938 -8.75 8.59375 -8.71875 9.09375 -9.34375 C 11.019531 -11.84375 11.847656 -14.316406 11.578125 -16.765625 C 11.265625 -19.171875 10.6875 -21.492188 9.84375 -23.734375 Z M 10.796875 -3.828125 C 11.128906 -2.773438 11.769531 -1.472656 12.71875 0.078125 L 13.796875 1.859375 C 14.148438 2.535156 14.429688 3.148438 14.640625 3.703125 C 15.515625 6.117188 16.210938 7.988281 16.734375 9.3125 C 17.410156 10.957031 17.195312 12.429688 16.09375 13.734375 C 15.800781 14.066406 15.539062 14.488281 15.3125 15 L 15.0625 15.640625 L 14.78125 16.328125 C 14.332031 17.503906 13.65625 17.796875 12.75 17.203125 C 12.4375 16.992188 12.066406 16.941406 11.640625 17.046875 C 9.972656 17.390625 8.710938 16.660156 7.859375 14.859375 L 6.90625 13.109375 L 5.9375 11.390625 C 5.019531 9.878906 4.378906 8.722656 4.015625 7.921875 C 0.921875 1.390625 -1.597656 -4.203125 -3.546875 -8.859375 C -6.796875 -16.578125 -9.210938 -23.046875 -10.796875 -28.265625 C -11.285156 -29.816406 -10.929688 -31 -9.734375 -31.8125 C -8.503906 -32.632812 -7.347656 -32.410156 -6.265625 -31.140625 C -5.910156 -30.691406 -5.460938 -30.539062 -4.921875 -30.6875 C -4.710938 -30.726562 -4.476562 -30.8125 -4.21875 -30.9375 L -3.578125 -31.265625 C 0.703125 -33.609375 5.382812 -33.179688 10.46875 -29.984375 C 13.144531 -28.328125 15.351562 -25.910156 17.09375 -22.734375 C 18.375 -20.390625 18.460938 -17.5625 17.359375 -14.25 C 16.222656 -10.851562 14.40625 -8.597656 11.90625 -7.484375 C 9.976562 -6.628906 9.609375 -5.410156 10.796875 -3.828125 Z M 10.796875 -3.828125" transform="translate(169.16 105.95)"/></g></g></g><g><g><g><path d="M 13.96875 -21.578125 C 13.25 -24.015625 11.890625 -26.375 9.890625 -28.65625 C 9.609375 -28.988281 9.253906 -29.175781 8.828125 -29.21875 L 2.65625 -29.8125 C 2.226562 -29.863281 1.972656 -29.773438 1.890625 -29.546875 C 1.796875 -29.316406 1.867188 -29.101562 2.109375 -28.90625 C 2.535156 -28.539062 2.863281 -28.09375 3.09375 -27.5625 C 3.28125 -27.1875 3.441406 -26.679688 3.578125 -26.046875 C 3.710938 -25.453125 3.929688 -24.8125 4.234375 -24.125 L 5.09375 -22.3125 C 5.914062 -20.738281 6.425781 -19.492188 6.625 -18.578125 L 7.3125 -15.890625 L 8.140625 -13.234375 C 8.847656 -10.960938 9.3125 -9.164062 9.53125 -7.84375 C 9.664062 -7.125 10.03125 -7.023438 10.625 -7.546875 C 12.976562 -9.648438 14.234375 -11.9375 14.390625 -14.40625 C 14.523438 -16.832031 14.382812 -19.222656 13.96875 -21.578125 Z M 11.3125 -1.8125 C 11.445312 -0.71875 11.847656 0.675781 12.515625 2.375 L 13.234375 4.328125 C 13.460938 5.046875 13.632812 5.691406 13.75 6.265625 C 14.164062 8.816406 14.515625 10.785156 14.796875 12.171875 C 15.160156 13.910156 14.675781 15.328125 13.34375 16.421875 C 13.007812 16.679688 12.679688 17.039062 12.359375 17.5 L 12 18.09375 L 11.609375 18.734375 C 10.953125 19.804688 10.234375 19.96875 9.453125 19.21875 C 9.171875 18.957031 8.816406 18.835938 8.390625 18.859375 C 6.679688 18.898438 5.570312 17.960938 5.0625 16.046875 L 4.4375 14.125 L 3.78125 12.28125 C 3.164062 10.625 2.742188 9.375 2.515625 8.53125 C 0.660156 1.53125 -0.804688 -4.429688 -1.890625 -9.359375 C -3.703125 -17.535156 -4.914062 -24.332031 -5.53125 -29.75 C -5.71875 -31.363281 -5.15625 -32.460938 -3.84375 -33.046875 C -2.476562 -33.640625 -1.382812 -33.207031 -0.5625 -31.75 C -0.289062 -31.25 0.117188 -31.023438 0.671875 -31.078125 C 0.898438 -31.078125 1.144531 -31.117188 1.40625 -31.203125 L 2.109375 -31.40625 C 6.742188 -32.925781 11.273438 -31.664062 15.703125 -27.625 C 18.035156 -25.507812 19.773438 -22.734375 20.921875 -19.296875 C 21.753906 -16.753906 21.332031 -13.953125 19.65625 -10.890625 C 17.925781 -7.742188 15.726562 -5.859375 13.0625 -5.234375 C 11.007812 -4.734375 10.425781 -3.59375 11.3125 -1.8125 Z M 11.3125 -1.8125" transform="translate(194.436 95.228)"/></g></g></g><g clip-path="url(#m)"><path d="M 137.785156 198.695312 C 134.96875 198.695312 132.640625 201.023438 132.640625 203.839844 L 132.640625 274.550781 C 132.640625 277.367188 134.96875 279.695312 137.785156 279.695312 L 208.492188 279.695312 C 211.3125 279.695312 213.640625 277.375 213.640625 274.550781 L 213.640625 203.839844 C 213.640625 201.023438 211.320312 198.695312 208.492188 198.695312 Z M 137.785156 202.550781 L 208.492188 202.550781 C 209.210938 202.550781 209.78125 203.125 209.78125 203.839844 L 209.78125 274.550781 C 209.78125 275.265625 209.210938 275.839844 208.492188 275.839844 L 137.785156 275.839844 C 137.070312 275.839844 136.496094 275.265625 136.496094 274.550781 L 136.496094 203.839844 C 136.496094 203.125 137.070312 202.550781 137.785156 202.550781 Z M 169.28125 235.339844 L 169.28125 259.589844 C 169.28125 263.308594 167.875 264.265625 165.425781 264.265625 C 162.863281 264.265625 161.085938 262.667969 159.910156 260.597656 L 153.851562 264.265625 C 155.609375 267.980469 159.910156 271.980469 165.875 271.980469 C 172.476562 271.980469 176.996094 268.46875 176.996094 260.761719 L 176.996094 235.339844 Z M 193.296875 235.339844 C 186.730469 235.339844 182.519531 239.542969 182.519531 245.0625 C 182.519531 251.054688 186.050781 253.886719 191.363281 256.144531 L 193.199219 256.9375 C 196.554688 258.40625 198.210938 259.300781 198.210938 261.824219 C 198.210938 263.925781 196.613281 265.449219 193.5625 265.449219 C 189.929688 265.449219 188.214844 262.984375 186.640625 260.410156 L 180.851562 264.265625 C 183.015625 268.539062 186.894531 271.980469 193.726562 271.980469 C 200.71875 271.980469 205.925781 268.351562 205.925781 261.726562 C 205.925781 255.582031 202.398438 252.847656 196.140625 250.164062 L 194.300781 249.378906 C 191.144531 248.007812 189.773438 247.121094 189.773438 244.914062 C 189.773438 243.128906 191.144531 241.757812 193.296875 241.757812 C 195.414062 241.757812 196.773438 242.652344 198.03125 244.914062 L 203.761719 241.238281 C 201.34375 236.964844 197.976562 235.339844 193.296875 235.339844 Z M 193.296875 235.339844"/></g></svg>