<svg xmlns="http://www.w3.org/2000/svg" width="375" viewBox="0 0 375 375" height="375" version="1.0"><defs><clipPath id="a"><path d="M 5 0 L 359 0 L 359 310.5 L 5 310.5 Z M 5 0"/></clipPath></defs><g clip-path="url(#a)"><path fill="#C7EDE6" d="M 342.503906 184.1875 C 347.398438 174.894531 350.199219 164.328125 350.199219 153.09375 C 350.199219 124.539062 332.273438 100.234375 307.09375 90.65625 C 307.09375 90.628906 307.097656 90.597656 307.097656 90.5625 C 307.097656 40.546875 266.578125 0 216.589844 0 C 174.421875 0 139.09375 28.898438 129.042969 67.953125 C 122.683594 65.859375 115.902344 64.6875 108.84375 64.6875 C 75.691406 64.6875 48.40625 89.667969 44.671875 121.835938 C 22.242188 126.585938 5.40625 146.492188 5.40625 170.34375 C 5.40625 197.734375 27.597656 219.9375 54.972656 219.9375 C 55.734375 219.9375 56.488281 219.886719 57.238281 219.84375 C 57.21875 220.597656 57.125 221.335938 57.125 222.09375 C 57.125 270.917969 96.683594 310.5 145.476562 310.5 C 173.222656 310.5 197.953125 297.683594 214.152344 277.664062 C 223.539062 287.261719 236.589844 293.25 251.070312 293.25 C 271.113281 293.25 288.453125 281.820312 297.039062 265.140625 C 301.574219 266.585938 306.398438 267.375 311.410156 267.375 C 337.59375 267.375 358.816406 246.136719 358.816406 219.9375 C 358.816406 205.660156 352.484375 192.886719 342.503906 184.1875 Z M 342.503906 184.1875"/></g><path fill="#FFF" d="M 45.941406 146.625 L 3.253906 146.625 C 2.0625 146.625 1.097656 145.660156 1.097656 144.46875 C 1.097656 143.277344 2.0625 142.3125 3.253906 142.3125 L 45.941406 142.3125 C 47.132812 142.3125 48.097656 143.277344 48.097656 144.46875 C 48.097656 145.660156 47.136719 146.625 45.941406 146.625 Z M 45.941406 146.625"/><path fill="#FFF" d="M 59.28125 146.625 L 54.972656 146.625 C 53.78125 146.625 52.816406 145.660156 52.816406 144.46875 C 52.816406 143.277344 53.78125 142.3125 54.972656 142.3125 L 59.28125 142.3125 C 60.46875 142.3125 61.4375 143.277344 61.4375 144.46875 C 61.4375 145.660156 60.472656 146.625 59.28125 146.625 Z M 59.28125 146.625"/><path fill="#FFF" d="M 80.792969 155.25 L 42.042969 155.25 C 40.851562 155.25 39.886719 154.285156 39.886719 153.09375 C 39.886719 151.902344 40.851562 150.9375 42.042969 150.9375 L 80.792969 150.9375 C 81.980469 150.9375 82.945312 151.902344 82.945312 153.09375 C 82.945312 154.285156 81.980469 155.25 80.792969 155.25 Z M 80.792969 155.25"/><path fill="#FFF" d="M 33.421875 155.25 L 29.113281 155.25 C 27.921875 155.25 26.957031 154.285156 26.957031 153.09375 C 26.957031 151.902344 27.921875 150.9375 29.113281 150.9375 L 33.421875 150.9375 C 34.609375 150.9375 35.578125 151.902344 35.578125 153.09375 C 35.578125 154.285156 34.613281 155.25 33.421875 155.25 Z M 33.421875 155.25"/><path fill="#FFF" d="M 20.492188 155.25 L 11.871094 155.25 C 10.683594 155.25 9.71875 154.285156 9.71875 153.09375 C 9.71875 151.902344 10.683594 150.9375 11.871094 150.9375 L 20.492188 150.9375 C 21.679688 150.9375 22.648438 151.902344 22.648438 153.09375 C 22.648438 154.285156 21.683594 155.25 20.492188 155.25 Z M 20.492188 155.25"/><path fill="#FFF" d="M 46.351562 163.875 L 37.730469 163.875 C 36.542969 163.875 35.578125 162.910156 35.578125 161.71875 C 35.578125 160.527344 36.542969 159.5625 37.730469 159.5625 L 46.351562 159.5625 C 47.539062 159.5625 48.507812 160.527344 48.507812 161.71875 C 48.507812 162.910156 47.539062 163.875 46.351562 163.875 Z M 46.351562 163.875"/><path fill="#FFF" d="M 59.28125 125.0625 C 58.519531 125.0625 55.734375 125.0625 54.972656 125.0625 C 53.78125 125.0625 52.816406 126.027344 52.816406 127.21875 C 52.816406 128.410156 53.78125 129.375 54.972656 129.375 C 55.734375 129.375 58.519531 129.375 59.28125 129.375 C 60.46875 129.375 61.4375 128.410156 61.4375 127.21875 C 61.4375 126.027344 60.46875 125.0625 59.28125 125.0625 Z M 59.28125 125.0625"/><path fill="#FFF" d="M 59.28125 133.6875 C 58.519531 133.6875 38.492188 133.6875 37.730469 133.6875 C 36.542969 133.6875 35.578125 134.652344 35.578125 135.84375 C 35.578125 137.035156 36.542969 138 37.730469 138 C 38.492188 138 58.519531 138 59.28125 138 C 60.46875 138 61.4375 137.035156 61.4375 135.84375 C 61.4375 134.652344 60.46875 133.6875 59.28125 133.6875 Z M 59.28125 133.6875"/><path fill="#FFF" d="M 80.828125 142.3125 C 80.066406 142.3125 68.664062 142.3125 67.902344 142.3125 C 66.710938 142.3125 65.746094 143.277344 65.746094 144.46875 C 65.746094 145.660156 66.710938 146.625 67.902344 146.625 C 68.664062 146.625 80.066406 146.625 80.828125 146.625 C 82.019531 146.625 82.984375 145.660156 82.984375 144.46875 C 82.984375 143.277344 82.019531 142.3125 80.828125 142.3125 Z M 80.828125 142.3125"/><path fill="#FFF" d="M 332.957031 215.625 L 289.859375 215.625 C 288.671875 215.625 287.703125 214.660156 287.703125 213.46875 C 287.703125 212.277344 288.671875 211.3125 289.859375 211.3125 L 332.957031 211.3125 C 334.148438 211.3125 335.113281 212.277344 335.113281 213.46875 C 335.113281 214.660156 334.148438 215.625 332.957031 215.625 Z M 332.957031 215.625"/><path fill="#FFF" d="M 350.199219 215.625 L 341.578125 215.625 C 340.390625 215.625 339.421875 214.660156 339.421875 213.46875 C 339.421875 212.277344 340.390625 211.3125 341.578125 211.3125 L 350.199219 211.3125 C 351.386719 211.3125 352.351562 212.277344 352.351562 213.46875 C 352.351562 214.660156 351.386719 215.625 350.199219 215.625 Z M 350.199219 215.625"/><path fill="#FFF" d="M 371.746094 224.25 L 328.648438 224.25 C 327.460938 224.25 326.492188 223.285156 326.492188 222.09375 C 326.492188 220.902344 327.460938 219.9375 328.648438 219.9375 L 371.746094 219.9375 C 372.9375 219.9375 373.902344 220.902344 373.902344 222.09375 C 373.902344 223.285156 372.941406 224.25 371.746094 224.25 Z M 371.746094 224.25"/><path fill="#FFF" d="M 320.027344 224.25 L 315.71875 224.25 C 314.53125 224.25 313.5625 223.285156 313.5625 222.09375 C 313.5625 220.902344 314.53125 219.9375 315.71875 219.9375 L 320.027344 219.9375 C 321.21875 219.9375 322.183594 220.902344 322.183594 222.09375 C 322.183594 223.285156 321.21875 224.25 320.027344 224.25 Z M 320.027344 224.25"/><path fill="#FFF" d="M 306.5625 224.25 L 298.480469 224.25 C 297.289062 224.25 296.324219 223.285156 296.324219 222.09375 C 296.324219 220.902344 297.289062 219.9375 298.480469 219.9375 L 306.5625 219.9375 C 307.75 219.9375 308.714844 220.902344 308.714844 222.09375 C 308.714844 223.285156 307.75 224.25 306.5625 224.25 Z M 306.5625 224.25"/><path fill="#FFF" d="M 345.886719 207 L 324.339844 207 C 323.148438 207 322.183594 206.035156 322.183594 204.84375 C 322.183594 203.652344 323.148438 202.6875 324.339844 202.6875 L 345.886719 202.6875 C 347.078125 202.6875 348.042969 203.652344 348.042969 204.84375 C 348.042969 206.035156 347.082031 207 345.886719 207 Z M 345.886719 207"/><path fill="#FFF" d="M 332.957031 232.875 L 324.339844 232.875 C 323.148438 232.875 322.183594 231.910156 322.183594 230.71875 C 322.183594 229.527344 323.148438 228.5625 324.339844 228.5625 L 332.957031 228.5625 C 334.148438 228.5625 335.113281 229.527344 335.113281 230.71875 C 335.113281 231.910156 334.148438 232.875 332.957031 232.875 Z M 332.957031 232.875"/><path fill="#FDFCEF" d="M 252.148438 88.40625 C 252.148438 88.40625 245.394531 88.40625 237.0625 88.40625 C 228.734375 88.40625 221.980469 81.648438 221.980469 73.3125 C 221.980469 65.632812 227.734375 59.367188 235.144531 58.414062 C 235.023438 57.640625 234.910156 56.867188 234.910156 56.0625 C 234.910156 47.726562 241.664062 40.96875 249.992188 40.96875 C 254.441406 40.96875 258.398438 42.929688 261.15625 45.992188 C 262.8125 38.195312 269.71875 32.34375 278.007812 32.34375 C 287.527344 32.34375 295.246094 40.066406 295.246094 49.59375 C 295.246094 50.417969 295.117188 51.207031 295.007812 52 C 296.851562 50.515625 299.164062 49.59375 301.710938 49.59375 C 307.003906 49.59375 311.386719 53.417969 312.292969 58.457031 C 313.066406 58.335938 313.835938 58.21875 314.640625 58.21875 C 322.972656 58.21875 329.726562 64.976562 329.726562 73.3125 C 329.726562 81.648438 322.972656 88.40625 314.640625 88.40625 C 306.3125 88.40625 282.316406 88.40625 282.316406 88.40625 L 282.316406 90.5625 L 252.148438 90.5625 Z M 252.148438 88.40625"/><path fill="#472B29" d="M 244.605469 69 C 245.199219 69 245.683594 68.515625 245.683594 67.921875 C 245.683594 62.648438 241.394531 58.355469 236.125 58.355469 C 235.976562 58.394531 232.949219 58.351562 230.761719 58.941406 C 230.191406 59.097656 229.847656 59.6875 230.003906 60.261719 C 230.160156 60.839844 230.75 61.179688 231.324219 61.023438 C 233.238281 60.503906 236.0625 60.503906 236.121094 60.511719 C 240.207031 60.511719 243.527344 63.839844 243.527344 67.921875 C 243.527344 68.515625 244.011719 69 244.605469 69 Z M 244.605469 69"/><path fill="#472B29" d="M 275.851562 88.40625 C 275.851562 88.691406 275.796875 88.96875 275.6875 89.230469 C 275.578125 89.496094 275.421875 89.730469 275.222656 89.929688 C 275.019531 90.132812 274.785156 90.289062 274.523438 90.398438 C 274.257812 90.507812 273.984375 90.5625 273.699219 90.5625 C 273.414062 90.5625 273.136719 90.507812 272.875 90.398438 C 272.609375 90.289062 272.375 90.132812 272.175781 89.929688 C 271.972656 89.730469 271.816406 89.496094 271.707031 89.230469 C 271.597656 88.96875 271.542969 88.691406 271.542969 88.40625 C 271.542969 88.121094 271.597656 87.84375 271.707031 87.582031 C 271.816406 87.316406 271.972656 87.082031 272.175781 86.882812 C 272.375 86.679688 272.609375 86.523438 272.875 86.414062 C 273.136719 86.304688 273.414062 86.25 273.699219 86.25 C 273.984375 86.25 274.257812 86.304688 274.523438 86.414062 C 274.785156 86.523438 275.019531 86.679688 275.222656 86.882812 C 275.421875 87.082031 275.578125 87.316406 275.6875 87.582031 C 275.796875 87.84375 275.851562 88.121094 275.851562 88.40625 Z M 275.851562 88.40625"/><path fill="#472B29" d="M 237.0625 90.5625 L 252.148438 90.5625 C 253.339844 90.5625 254.304688 89.597656 254.304688 88.40625 C 254.304688 87.214844 253.339844 86.25 252.148438 86.25 L 237.0625 86.25 C 229.933594 86.25 224.132812 80.445312 224.132812 73.3125 C 224.132812 66.859375 228.984375 61.375 235.417969 60.550781 C 235.996094 60.472656 236.515625 60.171875 236.867188 59.707031 C 237.214844 59.242188 237.359375 58.65625 237.269531 58.082031 C 237.171875 57.417969 237.0625 56.753906 237.0625 56.0625 C 237.0625 48.929688 242.863281 43.125 249.992188 43.125 C 253.65625 43.125 257.054688 44.65625 259.558594 47.4375 C 260.097656 48.035156 260.941406 48.292969 261.710938 48.074219 C 262.496094 47.863281 263.09375 47.234375 263.261719 46.441406 C 264.734375 39.523438 270.933594 34.5 278.007812 34.5 C 286.324219 34.5 293.09375 41.269531 293.09375 49.59375 C 293.09375 50.210938 293 50.800781 292.914062 51.394531 C 292.789062 52.273438 293.1875 53.285156 293.957031 53.726562 C 294.730469 54.164062 295.664062 54.234375 296.355469 53.683594 C 297.929688 52.417969 299.777344 51.75 301.710938 51.75 C 305.875 51.75 309.4375 54.730469 310.171875 58.839844 C 310.378906 59.992188 311.449219 60.761719 312.625 60.585938 C 313.289062 60.484375 313.953125 60.375 314.640625 60.375 C 321.769531 60.375 327.570312 66.179688 327.570312 73.3125 C 327.570312 80.445312 321.769531 86.25 314.640625 86.25 L 282.316406 86.25 C 281.128906 86.25 280.164062 87.214844 280.164062 88.40625 C 280.164062 89.597656 281.128906 90.5625 282.316406 90.5625 L 314.640625 90.5625 C 324.148438 90.5625 331.882812 82.824219 331.882812 73.3125 C 331.882812 63.800781 324.148438 56.0625 314.640625 56.0625 C 314.386719 56.0625 314.140625 56.070312 313.890625 56.089844 C 312.109375 50.972656 307.269531 47.4375 301.710938 47.4375 C 300.207031 47.4375 298.742188 47.699219 297.355469 48.214844 C 296.644531 38.152344 288.238281 30.1875 278.007812 30.1875 C 270.117188 30.1875 263.070312 35.046875 260.109375 42.148438 C 257.179688 40.003906 253.636719 38.8125 249.992188 38.8125 C 240.484375 38.8125 232.753906 46.550781 232.753906 56.0625 C 232.753906 56.269531 232.757812 56.472656 232.769531 56.675781 C 225.257812 58.605469 219.824219 65.417969 219.824219 73.3125 C 219.824219 82.824219 227.554688 90.5625 237.0625 90.5625 Z M 237.0625 90.5625"/><path fill="#472B29" d="M 260.769531 86.25 C 261.453125 86.25 264.394531 86.25 265.078125 86.25 C 266.269531 86.25 267.234375 87.214844 267.234375 88.40625 C 267.234375 89.597656 266.269531 90.5625 265.078125 90.5625 C 264.394531 90.5625 261.453125 90.5625 260.769531 90.5625 C 259.578125 90.5625 258.613281 89.597656 258.613281 88.40625 C 258.613281 87.214844 259.578125 86.25 260.769531 86.25 Z M 260.769531 86.25"/><path fill="#BE7841" d="M 111.089844 268.667969 C 106.761719 268.667969 103.242188 265.144531 103.242188 260.816406 L 103.242188 84.183594 C 103.242188 79.855469 106.761719 76.332031 111.089844 76.332031 L 248.820312 76.332031 C 253.148438 76.332031 256.667969 79.855469 256.667969 84.183594 L 256.667969 260.8125 C 256.667969 265.140625 253.148438 268.664062 248.820312 268.664062 L 111.089844 268.664062 Z M 111.089844 268.667969"/><path fill="#472B29" d="M 248.820312 79.351562 C 251.488281 79.351562 253.65625 81.519531 253.65625 84.1875 L 253.65625 260.8125 C 253.65625 263.480469 251.488281 265.648438 248.820312 265.648438 L 111.09375 265.648438 C 108.425781 265.648438 106.257812 263.480469 106.257812 260.8125 L 106.257812 84.1875 C 106.257812 81.519531 108.425781 79.351562 111.09375 79.351562 L 248.820312 79.351562 M 248.820312 73.3125 L 111.09375 73.3125 C 105.089844 73.3125 100.222656 78.179688 100.222656 84.1875 L 100.222656 260.8125 C 100.222656 266.820312 105.089844 271.6875 111.09375 271.6875 L 248.820312 271.6875 C 254.824219 271.6875 259.691406 266.820312 259.691406 260.8125 L 259.691406 84.1875 C 259.691406 78.179688 254.824219 73.3125 248.820312 73.3125 Z M 248.820312 73.3125"/><path fill="#FFFEF4" d="M 116.171875 251.417969 L 116.171875 93.582031 L 243.742188 93.582031 L 243.742188 223.136719 L 214.398438 251.417969 Z M 116.171875 251.417969"/><path fill="#472B29" d="M 240.726562 96.601562 L 240.726562 221.855469 L 213.183594 248.398438 L 119.1875 248.398438 L 119.1875 96.601562 L 240.726562 96.601562 M 246.761719 90.5625 L 113.152344 90.5625 L 113.152344 254.4375 L 215.617188 254.4375 L 246.761719 224.421875 Z M 246.761719 90.5625"/><path fill="#88CDD7" d="M 238.410156 224.25 L 216.574219 244.46875 L 216.449219 224.25 Z M 238.410156 224.25"/><path fill="#F2DF5E" d="M 157.148438 104.792969 C 153.566406 104.792969 150.648438 102.292969 150.648438 99.21875 L 150.648438 85.273438 C 150.648438 82.203125 152.074219 81.730469 152.539062 81.574219 C 152.691406 81.519531 152.84375 81.457031 152.988281 81.382812 L 169.824219 72.5 C 174.363281 70.28125 178.300781 69.230469 182.152344 69.230469 C 186.011719 69.230469 190.058594 70.289062 194.875 72.558594 L 211.535156 82.515625 C 211.679688 82.601562 211.824219 82.671875 211.980469 82.730469 C 213.523438 83.339844 213.566406 85.078125 213.566406 85.273438 L 213.566406 99.21875 C 213.566406 102.292969 210.648438 104.792969 207.066406 104.792969 Z M 157.148438 104.792969"/><path fill="#472B29" d="M 182.160156 72.246094 C 185.5 72.246094 189.054688 73.179688 193.339844 75.167969 L 209.996094 85.101562 C 210.179688 85.210938 210.363281 85.308594 210.554688 85.394531 L 210.554688 99.214844 C 210.554688 100.597656 208.960938 101.769531 207.070312 101.769531 L 157.148438 101.769531 C 155.261719 101.769531 153.667969 100.597656 153.667969 99.214844 L 153.667969 85.265625 C 153.667969 84.832031 153.714844 84.519531 153.761719 84.332031 C 153.976562 84.246094 154.1875 84.148438 154.394531 84.042969 L 171.074219 75.25 C 175.265625 73.199219 178.785156 72.246094 182.160156 72.246094 M 182.160156 66.210938 C 177.734375 66.210938 173.355469 67.417969 168.425781 69.828125 L 151.585938 78.703125 C 148.4375 79.757812 147.632812 82.75 147.632812 85.269531 L 147.632812 99.21875 C 147.632812 103.964844 151.894531 107.8125 157.148438 107.8125 L 207.070312 107.8125 C 212.328125 107.8125 216.589844 103.964844 216.589844 99.21875 L 216.589844 85.269531 C 216.589844 83.597656 215.78125 80.976562 213.085938 79.917969 L 196.171875 69.828125 C 191.058594 67.417969 186.585938 66.210938 182.160156 66.210938 Z M 182.160156 66.210938"/><path fill="#472B29" d="M 186.421875 81.9375 C 186.421875 82.21875 186.394531 82.5 186.339844 82.777344 C 186.285156 83.054688 186.203125 83.328125 186.09375 83.585938 C 185.984375 83.847656 185.851562 84.097656 185.695312 84.332031 C 185.539062 84.570312 185.359375 84.785156 185.160156 84.988281 C 184.960938 85.1875 184.742188 85.367188 184.507812 85.523438 C 184.273438 85.679688 184.023438 85.8125 183.761719 85.921875 C 183.5 86.03125 183.230469 86.113281 182.953125 86.167969 C 182.675781 86.222656 182.394531 86.25 182.113281 86.25 C 181.828125 86.25 181.550781 86.222656 181.273438 86.167969 C 180.996094 86.113281 180.726562 86.03125 180.464844 85.921875 C 180.203125 85.8125 179.953125 85.679688 179.71875 85.523438 C 179.484375 85.367188 179.265625 85.1875 179.066406 84.988281 C 178.863281 84.785156 178.6875 84.570312 178.527344 84.332031 C 178.371094 84.097656 178.238281 83.847656 178.128906 83.585938 C 178.023438 83.328125 177.941406 83.054688 177.886719 82.777344 C 177.832031 82.5 177.800781 82.21875 177.800781 81.9375 C 177.800781 81.65625 177.832031 81.375 177.886719 81.097656 C 177.941406 80.820312 178.023438 80.546875 178.128906 80.289062 C 178.238281 80.027344 178.371094 79.777344 178.527344 79.542969 C 178.6875 79.304688 178.863281 79.089844 179.066406 78.886719 C 179.265625 78.6875 179.484375 78.507812 179.71875 78.351562 C 179.953125 78.195312 180.203125 78.0625 180.464844 77.953125 C 180.726562 77.84375 180.996094 77.761719 181.273438 77.707031 C 181.550781 77.652344 181.828125 77.625 182.113281 77.625 C 182.394531 77.625 182.675781 77.652344 182.953125 77.707031 C 183.230469 77.761719 183.5 77.84375 183.761719 77.953125 C 184.023438 78.0625 184.273438 78.195312 184.507812 78.351562 C 184.742188 78.507812 184.960938 78.6875 185.160156 78.886719 C 185.359375 79.089844 185.539062 79.304688 185.695312 79.542969 C 185.851562 79.777344 185.984375 80.027344 186.09375 80.289062 C 186.203125 80.546875 186.285156 80.820312 186.339844 81.097656 C 186.394531 81.375 186.421875 81.65625 186.421875 81.9375 Z M 186.421875 81.9375"/><path fill="#472B29" d="M 217.453125 250.125 L 211.417969 250.125 L 211.417969 222.09375 C 211.417969 220.425781 212.769531 219.074219 214.4375 219.074219 L 242.449219 219.074219 L 242.449219 225.113281 L 217.453125 225.113281 Z M 217.453125 250.125"/><path fill="#FDFCEF" d="M 78.675781 288.9375 L 53.894531 288.9375 C 43.183594 292.171875 34.5 283.480469 34.5 272.765625 C 34.5 262.703125 42.179688 254.527344 51.976562 253.554688 C 51.878906 252.773438 51.738281 252.007812 51.738281 251.203125 C 51.738281 240.488281 60.421875 231.796875 71.132812 231.796875 C 77.332031 231.796875 82.78125 234.753906 86.332031 239.285156 C 86.9375 227.914062 96.253906 218.859375 107.765625 218.859375 C 119.667969 218.859375 129.316406 228.515625 129.316406 240.421875 C 129.316406 242.34375 128.984375 244.171875 128.511719 245.949219 C 131.277344 242.601562 135.40625 240.421875 140.089844 240.421875 C 147.765625 240.421875 154.03125 246.179688 154.980469 253.597656 C 155.761719 253.5 156.523438 253.359375 157.332031 253.359375 C 168.039062 253.359375 176.726562 262.050781 176.726562 272.765625 C 176.726562 283.480469 168.039062 292.171875 157.332031 288.9375 L 91.605469 288.9375 L 91.605469 293.25 L 78.675781 293.25 Z M 78.675781 288.9375"/><path fill="#472B29" d="M 106.6875 215.625 C 119.761719 215.625 130.394531 226.265625 130.394531 239.34375 C 130.394531 239.414062 130.394531 239.476562 130.394531 239.546875 C 132.988281 238.015625 135.953125 237.1875 139.011719 237.1875 C 146.90625 237.1875 153.714844 242.625 155.640625 250.148438 C 155.84375 250.132812 156.046875 250.125 156.253906 250.125 C 169.609375 250.125 180.167969 262.347656 177.339844 276.203125 C 175.273438 286.339844 165.753906 293.25 155.410156 293.25 L 92.144531 293.25 C 90.953125 293.25 89.988281 292.285156 89.988281 291.09375 C 89.988281 289.902344 90.953125 288.9375 92.144531 288.9375 L 155.578125 288.9375 C 163.851562 288.9375 171.46875 283.410156 173.121094 275.296875 C 175.386719 264.214844 166.9375 254.4375 156.253906 254.4375 C 155.75 254.4375 155.261719 254.511719 154.773438 254.574219 L 154.167969 254.65625 C 154.078125 254.671875 153.992188 254.675781 153.898438 254.675781 C 152.839844 254.675781 151.910156 253.875 151.765625 252.789062 C 150.945312 246.351562 145.460938 241.5 139.011719 241.5 C 135.199219 241.5 131.585938 243.230469 129.097656 246.242188 C 128.675781 246.753906 128.058594 247.027344 127.433594 247.027344 C 127.097656 247.027344 126.761719 246.949219 126.449219 246.785156 C 125.550781 246.324219 125.097656 245.296875 125.355469 244.316406 C 126.046875 241.730469 126.226562 239.707031 125.988281 237.636719 C 124.953125 228.464844 117.546875 220.777344 108.351562 220.007812 C 97.359375 219.078125 87.988281 227.457031 87.410156 238.316406 C 87.363281 239.214844 86.765625 239.984375 85.90625 240.257812 C 85.691406 240.328125 85.472656 240.363281 85.253906 240.363281 C 84.605469 240.363281 83.976562 240.0625 83.5625 239.535156 C 80.234375 235.304688 75.316406 232.875 70.054688 232.875 C 60.546875 232.875 52.816406 240.613281 52.816406 250.125 C 52.816406 250.628906 52.890625 251.117188 52.953125 251.605469 L 53.035156 252.210938 C 53.105469 252.789062 52.941406 253.367188 52.578125 253.820312 C 52.214844 254.273438 51.6875 254.5625 51.113281 254.617188 C 40.976562 255.628906 33.691406 265.09375 36.011719 275.597656 C 37.769531 283.589844 45.382812 288.9375 53.5625 288.9375 L 79.214844 288.9375 C 80.402344 288.9375 81.367188 289.902344 81.367188 291.09375 C 81.367188 292.285156 80.402344 293.25 79.214844 293.25 L 53.621094 293.25 C 42.988281 293.25 33.332031 285.902344 31.578125 275.40625 C 29.585938 263.488281 37.367188 252.894531 48.519531 250.652344 C 48.511719 250.480469 48.507812 250.300781 48.507812 250.125 C 48.507812 238.234375 58.171875 228.5625 70.054688 228.5625 C 75.125 228.5625 79.9375 230.355469 83.773438 233.582031 C 86.351562 223.214844 95.675781 215.625 106.6875 215.625 Z M 106.6875 215.625"/><path fill="#472B29" d="M 114.230469 246.890625 C 120.277344 246.890625 125.476562 251.199219 126.785156 256.984375 C 128.367188 256.027344 130.175781 255.515625 132.011719 255.515625 C 137.191406 255.515625 141.484375 259.382812 142.152344 264.433594 C 143.027344 264.238281 143.859375 264.140625 144.671875 264.140625 C 151.261719 264.140625 156.789062 269.316406 157.25 275.921875 C 157.289062 276.515625 156.84375 277.03125 156.25 277.074219 C 156.222656 277.074219 156.195312 277.074219 156.171875 277.074219 C 155.609375 277.074219 155.136719 276.636719 155.097656 276.074219 C 154.714844 270.59375 150.136719 266.292969 144.671875 266.292969 C 143.6875 266.292969 142.648438 266.472656 141.492188 266.839844 C 141.398438 266.871094 141.296875 266.882812 141.203125 266.882812 C 140.964844 266.882812 140.730469 266.796875 140.53125 266.652344 C 140.253906 266.449219 140.089844 266.09375 140.089844 265.75 C 140.089844 261.289062 136.464844 257.664062 132.011719 257.664062 C 130.082031 257.664062 128.195312 258.386719 126.703125 259.703125 C 126.503906 259.878906 126.246094 259.976562 125.992188 259.976562 C 125.855469 259.976562 125.722656 259.949219 125.59375 259.894531 C 125.214844 259.742188 124.953125 259.386719 124.925781 258.980469 C 124.484375 253.40625 119.792969 249.039062 114.242188 249.039062 C 113.34375 249.039062 112.410156 249.183594 111.300781 249.5 C 111.203125 249.53125 111.097656 249.542969 111 249.542969 C 110.53125 249.542969 110.105469 249.226562 109.96875 248.757812 C 109.804688 248.183594 110.136719 247.589844 110.710938 247.425781 C 112.003906 247.0625 113.128906 246.890625 114.230469 246.890625 Z M 114.230469 246.890625"/><path fill="#472B29" d="M 54.398438 253.359375 C 60.113281 253.359375 65.207031 257.226562 66.785156 262.769531 C 66.949219 263.34375 66.617188 263.9375 66.042969 264.101562 C 65.945312 264.132812 65.84375 264.144531 65.75 264.144531 C 65.28125 264.144531 64.847656 263.835938 64.714844 263.359375 C 63.402344 258.742188 59.160156 255.519531 54.402344 255.519531 C 53.898438 255.519531 53.410156 255.582031 52.929688 255.644531 C 52.875 255.652344 52.828125 255.65625 52.777344 255.65625 C 52.253906 255.65625 51.789062 255.261719 51.714844 254.722656 C 51.636719 254.132812 52.046875 253.589844 52.640625 253.511719 C 53.210938 253.429688 53.796875 253.359375 54.398438 253.359375 Z M 54.398438 253.359375"/><path fill="#FFFEF4" d="M 201.316406 175.394531 L 190.878906 201.242188 L 216.710938 190.796875"/><path fill="#472B29" d="M 190.878906 204.261719 C 190.09375 204.261719 189.324219 203.957031 188.746094 203.378906 C 187.890625 202.519531 187.628906 201.234375 188.082031 200.109375 L 198.519531 174.257812 L 204.117188 176.523438 L 196.339844 195.773438 L 215.582031 187.992188 L 217.847656 193.59375 L 192.011719 204.042969 C 191.644531 204.191406 191.257812 204.261719 190.878906 204.261719 Z M 190.878906 204.261719"/><path fill="#EF7D99" d="M 266.363281 136.085938 C 263.578125 136.085938 260.972656 135.011719 259.023438 133.0625 C 254.976562 129.011719 254.976562 122.421875 259.023438 118.375 L 267.140625 110.25 C 269.089844 108.296875 271.703125 107.222656 274.480469 107.222656 C 277.261719 107.222656 279.875 108.296875 281.820312 110.25 C 285.867188 114.292969 285.867188 120.886719 281.820312 124.933594 L 273.699219 133.0625 C 271.75 135.011719 269.140625 136.085938 266.363281 136.085938 Z M 266.363281 136.085938"/><path fill="#472B29" d="M 274.480469 110.242188 C 276.460938 110.242188 278.308594 111 279.6875 112.382812 C 281.066406 113.765625 281.832031 115.613281 281.832031 117.59375 C 281.832031 119.574219 281.070312 121.421875 279.6875 122.804688 L 271.570312 130.925781 C 270.191406 132.308594 268.339844 133.070312 266.363281 133.070312 C 264.382812 133.070312 262.535156 132.308594 261.15625 130.925781 C 258.285156 128.054688 258.285156 123.378906 261.15625 120.507812 L 269.277344 112.382812 C 270.65625 111 272.503906 110.242188 274.480469 110.242188 M 274.480469 104.203125 C 271.046875 104.203125 267.613281 105.503906 265.007812 108.109375 L 256.890625 116.234375 C 251.679688 121.449219 251.679688 129.980469 256.890625 135.191406 C 259.492188 137.796875 262.925781 139.105469 266.363281 139.105469 C 269.796875 139.105469 273.234375 137.800781 275.835938 135.191406 L 283.957031 127.066406 C 289.167969 121.855469 289.167969 113.324219 283.957031 108.109375 C 281.347656 105.503906 277.914062 104.203125 274.480469 104.203125 Z M 274.480469 104.203125"/><path fill="#F2DF5E" d="M 202.960938 174.449219 L 258.238281 119.140625 L 272.914062 133.824219 L 217.640625 189.136719 Z M 202.960938 174.449219"/><path fill="#472B29" d="M 258.242188 123.417969 L 268.65625 133.839844 L 217.644531 184.882812 L 207.230469 174.460938 L 258.242188 123.417969 M 258.242188 114.878906 L 198.695312 174.460938 L 217.644531 193.421875 L 277.1875 133.839844 Z M 258.242188 114.878906"/><path fill="#88CDD7" d="M 254.386719 123.011719 L 263.648438 113.738281 L 278.328125 128.425781 L 269.0625 137.695312 Z M 254.386719 123.011719"/><path fill="#472B29" d="M 263.65625 118.003906 L 274.070312 128.421875 L 269.070312 133.425781 L 258.65625 123.003906 L 263.65625 118.003906 M 263.65625 109.464844 L 250.121094 123.003906 L 269.070312 141.964844 L 282.601562 128.421875 Z M 263.65625 109.464844"/><path fill="#472B29" d="M 132.546875 218.859375 C 131.953125 218.859375 131.472656 218.375 131.472656 217.78125 L 131.472656 200.53125 C 131.472656 199.9375 131.953125 199.453125 132.546875 199.453125 C 133.144531 199.453125 133.625 199.9375 133.625 200.53125 L 133.625 217.78125 C 133.625 218.375 133.144531 218.859375 132.546875 218.859375 Z M 132.546875 218.859375"/><path fill="#472B29" d="M 132.546875 192.984375 C 131.953125 192.984375 131.472656 192.5 131.472656 191.90625 L 131.472656 127.21875 C 131.472656 126.625 131.953125 126.140625 132.546875 126.140625 C 133.144531 126.140625 133.625 126.625 133.625 127.21875 L 133.625 191.90625 C 133.625 192.5 133.144531 192.984375 132.546875 192.984375 Z M 132.546875 192.984375"/><path fill="#472B29" d="M 167.027344 236.109375 L 158.40625 236.109375 C 157.8125 236.109375 157.332031 235.625 157.332031 235.03125 C 157.332031 234.4375 157.8125 233.953125 158.40625 233.953125 L 167.027344 233.953125 C 167.621094 233.953125 168.105469 234.4375 168.105469 235.03125 C 168.105469 235.625 167.621094 236.109375 167.027344 236.109375 Z M 167.027344 236.109375"/><path fill="#472B29" d="M 197.195312 236.109375 L 175.648438 236.109375 C 175.054688 236.109375 174.570312 235.625 174.570312 235.03125 C 174.570312 234.4375 175.054688 233.953125 175.648438 233.953125 L 197.195312 233.953125 C 197.792969 233.953125 198.273438 234.4375 198.273438 235.03125 C 198.273438 235.625 197.792969 236.109375 197.195312 236.109375 Z M 197.195312 236.109375"/></svg>